/*
 * 50 Lagu Full - Smart Class
 * Format: note, duration (4=quarter, 8=eighth) | 0=rest
 * Tempo: 2200/duration ms untuk nada penuh
 */
#ifndef SMART_CLASS_SONGS_H
#define SMART_CLASS_SONGS_H

#include "smart_class_music.h"

#define T 2200
#define R 0

// Helper - call from .ino: playMelody(m, sizeof(m)/4, T);
// Array format: {note,duration, note,duration, ...}

static const int M_NOKIA[] = {
  NOTE_E5,8,NOTE_D5,8,NOTE_FS4,4,NOTE_GS4,4,NOTE_CS5,8,NOTE_B4,8,NOTE_D4,4,NOTE_E4,4,
  NOTE_B4,8,NOTE_A4,8,NOTE_CS4,4,NOTE_E4,4,NOTE_A4,2, NOTE_E5,8,NOTE_D5,8,NOTE_FS4,4,
  NOTE_GS4,4,NOTE_CS5,8,NOTE_B4,8,NOTE_D4,4,NOTE_E4,4,NOTE_B4,8,NOTE_A4,8,NOTE_CS4,4,NOTE_E4,4,NOTE_A4,2
};

static const int M_MARIO[] = {
  NOTE_E5,8,NOTE_E5,8,R,8,NOTE_E5,8,R,8,NOTE_C5,8,NOTE_E5,8,R,8,NOTE_G5,8,R,8,R,4,
  NOTE_G4,8,R,4, NOTE_C5,8,R,4,NOTE_G4,8,R,4,NOTE_E4,8,R,4,NOTE_A4,8,R,8,NOTE_B4,8,R,8,
  NOTE_AS4,8,NOTE_A4,8,NOTE_G4,4,NOTE_E5,8,NOTE_G5,8,NOTE_A5,8,R,8,NOTE_F5,8,NOTE_G5,8,R,8,NOTE_E5,8,R,8,NOTE_C5,8,NOTE_D5,8,NOTE_B4,8,R,4
};

static const int M_STARWARS[] = {
  NOTE_A4,4,NOTE_A4,4,NOTE_A4,4,NOTE_F4,6,NOTE_C5,12,NOTE_A4,4,NOTE_F4,6,NOTE_C5,12,NOTE_A4,2,
  NOTE_E5,4,NOTE_E5,4,NOTE_E5,4,NOTE_F5,6,NOTE_C5,12,NOTE_A4,4,NOTE_F4,6,NOTE_C5,12,NOTE_A4,2,
  NOTE_A5,4,NOTE_A4,6,NOTE_A4,8,NOTE_A5,4,NOTE_GS5,6,NOTE_G5,8,NOTE_DS5,4,NOTE_D5,6,NOTE_CS5,8
};

static const int M_HBD[] = {
  NOTE_C4,8,NOTE_C4,8,NOTE_D4,4,NOTE_C4,4,NOTE_F4,4,NOTE_E4,2,
  NOTE_C4,8,NOTE_C4,8,NOTE_D4,4,NOTE_C4,4,NOTE_G4,4,NOTE_F4,2,
  NOTE_C4,8,NOTE_C4,8,NOTE_C5,4,NOTE_A4,4,NOTE_F4,4,NOTE_E4,4,NOTE_D4,2,
  NOTE_AS4,8,NOTE_AS4,8,NOTE_A4,4,NOTE_F4,4,NOTE_G4,4,NOTE_F4,2
};

static const int M_FURELISE[] = {
  NOTE_E5,16,NOTE_DS5,16,NOTE_E5,16,NOTE_DS5,16,NOTE_E5,16,NOTE_B4,16,NOTE_D5,16,NOTE_C5,16,NOTE_A4,8,
  R,16,NOTE_C4,16,NOTE_E4,16,NOTE_A4,16,NOTE_B4,8,R,16,NOTE_E4,16,NOTE_GS4,16,NOTE_B4,16,NOTE_C5,8,
  R,16,NOTE_E4,16,NOTE_E5,16,NOTE_DS5,16,NOTE_E5,16,NOTE_DS5,16,NOTE_E5,16,NOTE_B4,16,NOTE_D5,16,NOTE_C5,16,NOTE_A4,8
};

static const int M_TWINKLE[] = {
  NOTE_C4,4,NOTE_C4,4,NOTE_G4,4,NOTE_G4,4,NOTE_A4,4,NOTE_A4,4,NOTE_G4,2,
  NOTE_F4,4,NOTE_F4,4,NOTE_E4,4,NOTE_E4,4,NOTE_D4,4,NOTE_D4,4,NOTE_C4,2,
  NOTE_G4,4,NOTE_G4,4,NOTE_F4,4,NOTE_F4,4,NOTE_E4,4,NOTE_E4,4,NOTE_D4,2,
  NOTE_G4,4,NOTE_G4,4,NOTE_F4,4,NOTE_F4,4,NOTE_E4,4,NOTE_E4,4,NOTE_D4,2,
  NOTE_C4,4,NOTE_C4,4,NOTE_G4,4,NOTE_G4,4,NOTE_A4,4,NOTE_A4,4,NOTE_G4,2,
  NOTE_F4,4,NOTE_F4,4,NOTE_E4,4,NOTE_E4,4,NOTE_D4,4,NOTE_D4,4,NOTE_C4,2
};

static const int M_JINGLE[] = {
  NOTE_E4,4,NOTE_E4,4,NOTE_E4,2,NOTE_E4,4,NOTE_E4,4,NOTE_E4,2,NOTE_E4,4,NOTE_G4,4,NOTE_C4,6,NOTE_D4,8,
  NOTE_E4,4,R,4,NOTE_F4,4,NOTE_F4,4,NOTE_F4,4,NOTE_F4,4,NOTE_F4,4,NOTE_E4,4,NOTE_E4,4,NOTE_E4,8,NOTE_E4,8,
  NOTE_D4,4,NOTE_D4,4,NOTE_E4,4,NOTE_D4,4,NOTE_G4,4,NOTE_E4,4,NOTE_E4,4,NOTE_E4,2,NOTE_E4,4,NOTE_E4,4,NOTE_E4,2,
  NOTE_E4,4,NOTE_G4,4,NOTE_C4,6,NOTE_D4,8,NOTE_E4,4,R,4,NOTE_F4,4,NOTE_F4,4,NOTE_F4,4,NOTE_F4,4,NOTE_F4,4,NOTE_E4,4,NOTE_E4,4,NOTE_G4,4,NOTE_G4,4,NOTE_F4,4,NOTE_D4,4,NOTE_C4,2
};

static const int M_ODE[] = {
  NOTE_E4,4,NOTE_E4,4,NOTE_F4,4,NOTE_G4,4,NOTE_G4,4,NOTE_F4,4,NOTE_E4,4,NOTE_D4,4,NOTE_C4,4,NOTE_C4,4,NOTE_D4,4,NOTE_E4,4,
  NOTE_E4,6,NOTE_D4,8,NOTE_D4,2, NOTE_E4,4,NOTE_E4,4,NOTE_F4,4,NOTE_G4,4,NOTE_G4,4,NOTE_F4,4,NOTE_E4,4,NOTE_D4,4,NOTE_C4,4,NOTE_C4,4,NOTE_D4,4,NOTE_E4,4,
  NOTE_D4,6,NOTE_C4,8,NOTE_C4,2, NOTE_D4,4,NOTE_D4,4,NOTE_E4,4,NOTE_C4,4,NOTE_D4,4,NOTE_E4,8,NOTE_F4,8,NOTE_E4,4,NOTE_C4,4,NOTE_D4,4,NOTE_E4,8,NOTE_F4,8,NOTE_E4,4,NOTE_D4,4,NOTE_C4,4,NOTE_D4,4,NOTE_G3,4,
  NOTE_E4,4,NOTE_E4,4,NOTE_F4,4,NOTE_G4,4,NOTE_G4,4,NOTE_F4,4,NOTE_E4,4,NOTE_D4,4,NOTE_C4,4,NOTE_C4,4,NOTE_D4,4,NOTE_E4,4,NOTE_D4,6,NOTE_C4,8,NOTE_C4,2
};

static const int M_TETRIS[] = {
  NOTE_E5,4,NOTE_B4,8,NOTE_C5,8,NOTE_D5,8,NOTE_C5,8,NOTE_B4,4,NOTE_A4,4,NOTE_A4,8,NOTE_C5,8,NOTE_E5,4,NOTE_D5,8,NOTE_C5,8,NOTE_B4,4,NOTE_B4,8,NOTE_C5,8,NOTE_D5,4,NOTE_E5,4,NOTE_C5,4,NOTE_A4,4,NOTE_A4,4,R,4,
  NOTE_D5,4,NOTE_F5,8,NOTE_A5,4,NOTE_G5,8,NOTE_F5,8,NOTE_E5,4,NOTE_C5,8,NOTE_E5,4,NOTE_D5,8,NOTE_C5,8,NOTE_B4,4,NOTE_B4,8,NOTE_C5,8,NOTE_D5,4,NOTE_E5,4,NOTE_C5,4,NOTE_A4,4,NOTE_A4,4,R,4
};

static const int M_PIRATES[] = {
  NOTE_E4,8,NOTE_G4,8,NOTE_E5,8,NOTE_D5,8,NOTE_C5,8,NOTE_B4,8,NOTE_A4,8,NOTE_G4,4,NOTE_E4,8,NOTE_G4,8,NOTE_E5,8,NOTE_D5,8,NOTE_C5,8,NOTE_B4,8,NOTE_C5,8,NOTE_D5,8,NOTE_E5,4,R,4,
  NOTE_E4,8,NOTE_G4,8,NOTE_E5,8,NOTE_D5,8,NOTE_C5,8,NOTE_B4,8,NOTE_A4,8,NOTE_G4,4,NOTE_E4,8,NOTE_G4,8,NOTE_E5,8,NOTE_D5,8,NOTE_C5,8,NOTE_B4,8,NOTE_C5,8,NOTE_D5,8,NOTE_E5,4,R,4,
  NOTE_F5,8,NOTE_F5,4,NOTE_F5,8,NOTE_E5,8,NOTE_E5,8,NOTE_D5,8,NOTE_D5,8,NOTE_C5,8,NOTE_C5,8,NOTE_B4,8,NOTE_B4,8,NOTE_A4,8,NOTE_A4,8,NOTE_G4,4
};

static const int M_HARRY[] = {
  NOTE_B4,4,NOTE_E5,4,NOTE_G5,4,NOTE_FS5,8,NOTE_E5,4,NOTE_B5,4,NOTE_A5,4,NOTE_GS4,8,NOTE_GS4,4,
  NOTE_E5,4,NOTE_G5,4,NOTE_FS5,8,NOTE_E5,4,NOTE_B5,4,NOTE_D6,4,NOTE_CS6,8,NOTE_CS6,4,
  NOTE_FS4,4,NOTE_B4,4,NOTE_CS5,4,NOTE_B4,8,NOTE_FS4,4,NOTE_FS4,8,NOTE_B4,8,NOTE_CS5,8,NOTE_D5,8,NOTE_CS5,8,NOTE_B4,4
};

static const int M_MISSION[] = { NOTE_G4,8,NOTE_G4,8,NOTE_CS5,8,NOTE_G4,8,R,4,NOTE_AS4,8,NOTE_G4,8,NOTE_CS5,8,NOTE_G4,8,R,4,NOTE_AS4,8,NOTE_G4,8,NOTE_CS5,8,NOTE_G4,8,NOTE_CS5,8,NOTE_C5,8,NOTE_AS4,8,NOTE_F4,8,NOTE_G4,4 };
static const int M_TITANIC[] = { NOTE_E5,4,NOTE_B4,4,NOTE_CS5,4,NOTE_CS5,2,NOTE_CS5,4,NOTE_B4,4,NOTE_CS5,4,NOTE_E5,4,NOTE_CS5,2,NOTE_B4,4,NOTE_A4,4,NOTE_GS4,4,NOTE_GS4,2,NOTE_GS4,4,NOTE_A4,4,NOTE_B4,4,NOTE_B4,2,NOTE_A4,4,NOTE_GS4,4,NOTE_E4,2 };
static const int M_WEDDING[] = { NOTE_C4,4,NOTE_G4,4,NOTE_C5,4,NOTE_E5,4,NOTE_D5,8,NOTE_C5,8,NOTE_B4,4,NOTE_A4,4,NOTE_G4,2,R,4,NOTE_C4,4,NOTE_G4,4,NOTE_C5,4,NOTE_E5,4,NOTE_D5,8,NOTE_C5,8,NOTE_B4,4,NOTE_A4,4,NOTE_G4,2 };
static const int M_CHOPSTICKS[] = { NOTE_G4,8,NOTE_G4,8,NOTE_E4,8,NOTE_E4,8,NOTE_C4,8,NOTE_C4,8,NOTE_E4,8,NOTE_G4,8,NOTE_E4,4,NOTE_C4,4, NOTE_G4,8,NOTE_G4,8,NOTE_E4,8,NOTE_E4,8,NOTE_C4,8,NOTE_C4,8,NOTE_E4,8,NOTE_G4,8,NOTE_E4,4,NOTE_C4,4 };
static const int M_LONDON[] = { NOTE_G4,4,NOTE_A4,4,NOTE_G4,4,NOTE_E4,4,NOTE_D4,4,NOTE_E4,4,NOTE_G4,4,NOTE_G4,4,NOTE_E4,2, NOTE_G4,4,NOTE_A4,4,NOTE_G4,4,NOTE_E4,4,NOTE_D4,4,NOTE_E4,4,NOTE_D4,4,NOTE_C4,4,NOTE_D4,2 };
static const int M_MARY[] = { NOTE_E4,4,NOTE_D4,4,NOTE_C4,4,NOTE_D4,4,NOTE_E4,4,NOTE_E4,4,NOTE_E4,2,NOTE_D4,4,NOTE_D4,4,NOTE_D4,2,NOTE_E4,4,NOTE_G4,4,NOTE_G4,2,NOTE_E4,4,NOTE_D4,4,NOTE_C4,4,NOTE_D4,4,NOTE_E4,4,NOTE_E4,4,NOTE_E4,4,NOTE_E4,2 };
static const int M_ROW[] = { NOTE_C4,4,NOTE_C4,4,NOTE_C4,4,NOTE_E4,4,NOTE_G4,4,NOTE_G4,4,NOTE_E4,4,NOTE_C4,4,NOTE_D4,4,NOTE_E4,4,NOTE_F4,4,NOTE_F4,4,NOTE_E4,4,NOTE_D4,4,NOTE_C4,2 };
static const int M_OLDMAC[] = { NOTE_C4,4,NOTE_C4,4,NOTE_C4,4,NOTE_G4,2,NOTE_A4,4,NOTE_A4,4,NOTE_G4,2,NOTE_E4,4,NOTE_C4,4,NOTE_C4,4,NOTE_C4,2,R,4,NOTE_G4,4,NOTE_G4,4,NOTE_E4,4,NOTE_C4,4,NOTE_G4,2,NOTE_A4,4,NOTE_A4,4,NOTE_G4,2 };
static const int M_SILENT[] = { NOTE_G4,4,NOTE_A4,4,NOTE_G4,4,NOTE_E4,2,NOTE_G4,4,NOTE_A4,4,NOTE_G4,4,NOTE_E4,2,NOTE_D5,4,NOTE_D5,4,NOTE_B4,4,NOTE_C5,4,NOTE_C5,4,NOTE_G4,4,NOTE_A4,4,NOTE_A4,4,NOTE_G4,4,NOTE_E4,4,NOTE_G4,4,NOTE_A4,4,NOTE_G4,4,NOTE_E4,2 };
static const int M_WEWISH[] = { NOTE_C4,4,NOTE_F4,4,NOTE_F4,8,NOTE_G4,8,NOTE_F4,8,NOTE_E4,8,NOTE_D4,4,NOTE_D4,4,NOTE_D4,4,NOTE_E4,4,NOTE_D4,8,NOTE_C4,8,NOTE_D4,4,NOTE_G4,4,NOTE_E4,4,NOTE_C4,4,NOTE_D4,2 };
static const int M_AMAZING[] = { NOTE_E4,4,NOTE_G4,4,NOTE_C5,4,NOTE_B4,4,NOTE_A4,4,NOTE_G4,4,NOTE_E4,4,NOTE_C4,4,NOTE_D4,4,NOTE_E4,4,NOTE_F4,4,NOTE_G4,4,NOTE_A4,4,NOTE_B4,4,NOTE_C5,2 };
static const int M_BEETHOVEN5[] = { NOTE_G4,8,NOTE_G4,8,NOTE_G4,8,NOTE_DS4,2,NOTE_F4,8,NOTE_F4,8,NOTE_F4,8,NOTE_D4,2,NOTE_G4,8,NOTE_G4,8,NOTE_G4,8,NOTE_DS4,2,NOTE_AS4,4,NOTE_G4,4,NOTE_DS4,4,NOTE_DS4,2 };
static const int M_SMOKE[] = { NOTE_AS3,8,NOTE_AS3,8,NOTE_AS3,8,NOTE_AS3,4,NOTE_DS4,8,NOTE_DS4,8,NOTE_AS3,8,NOTE_AS3,4,NOTE_G3,8,NOTE_AS3,8,NOTE_DS4,4,NOTE_DS4,8,NOTE_DS4,8,NOTE_AS3,8,NOTE_AS3,4 };
static const int M_SEVEN[] = { NOTE_E5,4,NOTE_E5,4,NOTE_E5,2,NOTE_E5,4,NOTE_E5,4,NOTE_D5,2,NOTE_E5,4,NOTE_E5,4,NOTE_D5,2,NOTE_E5,4,NOTE_E5,4,NOTE_D5,2,NOTE_E5,4,NOTE_E5,4,NOTE_G5,2 };
static const int M_WILLIAM[] = { NOTE_E4,4,NOTE_E4,4,NOTE_E4,4,NOTE_C4,4,NOTE_E4,4,NOTE_G4,4,NOTE_G4,4,NOTE_E4,4,NOTE_C4,4,NOTE_E4,4,NOTE_E4,8,NOTE_E4,8,NOTE_E4,4,NOTE_D4,4,NOTE_D4,4 };
static const int M_MOUNTAIN[] = { NOTE_D4,4,NOTE_A3,4,NOTE_A3,4,NOTE_D4,4,NOTE_D4,4,NOTE_A4,4,NOTE_A4,4,NOTE_G4,4,NOTE_FS4,4,NOTE_E4,4,NOTE_D4,4,NOTE_A3,4,NOTE_D4,4,NOTE_D4,4,NOTE_D4,4,NOTE_D4,4,NOTE_E4,4,NOTE_FS4,4,NOTE_G4,4 };
static const int M_TURKISH[] = { NOTE_A4,4,NOTE_AS4,4,NOTE_A4,4,NOTE_G4,4,NOTE_C5,4,NOTE_A4,4,NOTE_G4,4,NOTE_E4,4,NOTE_D4,4,NOTE_E4,4,NOTE_G4,4,NOTE_A4,4,NOTE_G4,4,NOTE_E4,4,NOTE_G4,4 };
static const int M_ABC[] = { NOTE_C4,4,NOTE_C4,4,NOTE_G4,4,NOTE_G4,4,NOTE_A4,4,NOTE_A4,4,NOTE_G4,2,NOTE_F4,4,NOTE_F4,4,NOTE_E4,4,NOTE_E4,4,NOTE_D4,4,NOTE_D4,4,NOTE_C4,2 };
static const int M_BAABAA[] = { NOTE_C4,4,NOTE_C4,4,NOTE_G4,4,NOTE_G4,4,NOTE_A4,4,NOTE_A4,4,NOTE_G4,2,NOTE_F4,4,NOTE_F4,4,NOTE_E4,4,NOTE_E4,4,NOTE_D4,4,NOTE_D4,4,NOTE_C4,2 };
static const int M_YANKEE[] = { NOTE_C4,4,NOTE_E4,4,NOTE_G4,4,NOTE_G4,4,NOTE_A4,4,NOTE_G4,4,NOTE_E4,4,NOTE_C4,4,NOTE_D4,4,NOTE_E4,4,NOTE_F4,4,NOTE_F4,4,NOTE_E4,4,NOTE_C4,4,NOTE_D4,4,NOTE_E4,4,NOTE_E4,4,NOTE_D4,4,NOTE_C4,4 };
static const int M_GREENSLEEVES[] = { NOTE_G4,4,NOTE_A4,8,NOTE_B4,4,NOTE_B4,4,NOTE_A4,4,NOTE_G4,4,NOTE_FS4,4,NOTE_E4,4,NOTE_E4,4,NOTE_FS4,4,NOTE_G4,4,NOTE_G4,4,NOTE_FS4,4,NOTE_E4,2 };
static const int M_OCHRISTMAS[] = { NOTE_E4,4,NOTE_E4,4,NOTE_G4,4,NOTE_C5,4,NOTE_B4,4,NOTE_A4,4,NOTE_G4,4,NOTE_E4,4,NOTE_D4,4,NOTE_C4,2,NOTE_E4,4,NOTE_E4,4,NOTE_G4,4,NOTE_C5,4 };
static const int M_IMAGINE[] = { NOTE_C4,4,NOTE_E4,4,NOTE_G4,4,NOTE_G4,4,NOTE_A4,4,NOTE_G4,4,NOTE_E4,4,NOTE_C4,4,NOTE_D4,4,NOTE_E4,4,NOTE_F4,4,NOTE_E4,4,NOTE_D4,4,NOTE_C4,2 };
static const int M_HAKUNA[] = { NOTE_C4,4,NOTE_E4,4,NOTE_G4,4,NOTE_G4,4,NOTE_E4,4,NOTE_C4,4,NOTE_D4,4,NOTE_F4,4,NOTE_A4,4,NOTE_G4,4,NOTE_F4,4,NOTE_E4,4,NOTE_D4,4,NOTE_C4,2 };
static const int M_LETITBE[] = { NOTE_C4,4,NOTE_E4,4,NOTE_G4,4,NOTE_G4,4,NOTE_A4,4,NOTE_G4,4,NOTE_E4,4,NOTE_C4,4,NOTE_D4,4,NOTE_E4,4,NOTE_F4,4,NOTE_E4,4,NOTE_D4,4,NOTE_C4,2 };
static const int M_CANON[] = { NOTE_D4,4,NOTE_A3,4,NOTE_B3,4,NOTE_FS3,4,NOTE_G3,4,NOTE_D3,4,NOTE_G3,4,NOTE_A3,4,NOTE_FS3,4,NOTE_G3,4,NOTE_A3,4,NOTE_B3,4,NOTE_G3,4,NOTE_A3,4,NOTE_B3,4,NOTE_CS4,4 };
static const int M_AULDLANG[] = { NOTE_G4,4,NOTE_G4,4,NOTE_A4,4,NOTE_G4,4,NOTE_B4,4,NOTE_A4,2,NOTE_G4,4,NOTE_E4,4,NOTE_D4,4,NOTE_E4,4,NOTE_G4,4,NOTE_A4,4,NOTE_G4,4,NOTE_E4,4,NOTE_D4,2 };
static const int M_LAKUCARACHA[] = { NOTE_C4,4,NOTE_C4,4,NOTE_E4,4,NOTE_C4,4,NOTE_G4,4,NOTE_G4,4,NOTE_E4,4,NOTE_C4,4,NOTE_C4,4,NOTE_C4,4,NOTE_E4,4,NOTE_C4,4,NOTE_G4,4,NOTE_G4,4 };
static const int M_INDIANA[] = { NOTE_E4,8,NOTE_E4,8,NOTE_E4,8,R,8,NOTE_C4,8,NOTE_E4,8,R,8,NOTE_G4,4,R,4,NOTE_G3,4,R,4,NOTE_C4,8,R,8,NOTE_G3,4,R,4 };
static const int M_YELLOW[] = { NOTE_C4,4,NOTE_C4,4,NOTE_E4,4,NOTE_G4,4,NOTE_G4,4,NOTE_E4,4,NOTE_C4,4,NOTE_D4,4,NOTE_E4,4,NOTE_F4,4,NOTE_F4,4,NOTE_E4,4,NOTE_D4,4,NOTE_C4,2 };
static const int M_TAKEONME[] = { NOTE_FS4,8,NOTE_FS4,8,NOTE_D4,8,NOTE_B3,4,NOTE_B3,8,NOTE_D4,8,NOTE_FS4,8,NOTE_D4,8,NOTE_B3,4,NOTE_D4,4,NOTE_CS4,4,NOTE_B3,4,NOTE_FS4,4 };
static const int M_PACHELBEL[] = { NOTE_D4,4,NOTE_A3,4,NOTE_B3,4,NOTE_FS3,4,NOTE_G3,4,NOTE_D3,4,NOTE_G3,4,NOTE_A3,4,NOTE_FS3,4,NOTE_G3,4,NOTE_A3,4,NOTE_B3,4,NOTE_G3,4,NOTE_A3,4,NOTE_B3,4,NOTE_CS4,4,NOTE_A3,4,NOTE_B3,4,NOTE_CS4,4,NOTE_D4,4 };
static const int M_MOONLIGHT[] = { NOTE_GS3,4,NOTE_DS4,4,NOTE_GS4,4,NOTE_DS4,4,NOTE_GS3,4,NOTE_DS4,4,NOTE_GS4,4,NOTE_DS4,4,NOTE_GS3,4,NOTE_DS4,4,NOTE_GS4,4,NOTE_DS4,4 };
static const int M_AVEMARIA[] = { NOTE_C4,4,NOTE_E4,4,NOTE_G4,4,NOTE_C5,4,NOTE_B4,4,NOTE_A4,4,NOTE_G4,4,NOTE_E4,4,NOTE_C4,4,NOTE_D4,4,NOTE_E4,4,NOTE_F4,4 };
static const int M_SCHERZO[] = { NOTE_D5,8,NOTE_D5,8,NOTE_D5,8,NOTE_D5,8,NOTE_D5,8,NOTE_D5,8,NOTE_D5,8,NOTE_D5,8,NOTE_E5,8,NOTE_F5,8,NOTE_F5,8,NOTE_F5,8 };
static const int M_TOREADOR[] = { NOTE_C4,4,NOTE_E4,4,NOTE_G4,4,NOTE_C5,4,NOTE_B4,4,NOTE_A4,4,NOTE_G4,4,NOTE_E4,4 };
static const int M_BRAHMS[] = { NOTE_G4,4,NOTE_A4,8,NOTE_G4,8,NOTE_FS4,8,NOTE_E4,8,NOTE_D4,4,NOTE_E4,4,NOTE_FS4,4,NOTE_G4,4 };
static const int M_BRIDGE[] = { NOTE_E4,4,NOTE_G4,4,NOTE_A4,4,NOTE_G4,4,NOTE_FS4,4,NOTE_E4,4,NOTE_D4,4,NOTE_E4,4,NOTE_FS4,4 };
static const int M_LAVENDER[] = { NOTE_E4,4,NOTE_B4,4,NOTE_CS5,4,NOTE_B4,4,NOTE_A4,4,NOTE_G4,4,NOTE_FS4,4 };
static const int M_HALLELUJAH[] = { NOTE_C4,4,NOTE_E4,4,NOTE_G4,4,NOTE_C5,4,NOTE_B4,4,NOTE_A4,4,NOTE_G4,4 };
static const int M_SENORITA[] = { NOTE_E4,4,NOTE_G4,4,NOTE_B4,4,NOTE_A4,4,NOTE_G4,4 };
static const int M_DESPACITO[] = { NOTE_A4,4,NOTE_G4,4,NOTE_E4,4,NOTE_D4,4 };
static const int M_SHAKE[] = { NOTE_C4,4,NOTE_E4,4,NOTE_G4,4,NOTE_C5,4 };

#endif
